name Run_30002_GRF.mot
datacolumns 19
datarows 15
range 0.864 0.878
endheader

time	     ground_force_vx	     ground_force_vy	     ground_force_vz	     ground_force_px	     ground_force_py	     ground_force_pz	   l_ground_force_vx	   l_ground_force_vy	   l_ground_force_vz	   l_ground_force_px	   l_ground_force_py	   l_ground_force_pz	     ground_torque_x	     ground_torque_y	     ground_torque_z	   l_ground_torque_x	   l_ground_torque_y	   l_ground_torque_z	
0.864	          0.00000000	          0.00000000	          0.00000000	          0.00000000	          0.00000000	          0.00000000	          0.00000000	          0.00000000	          0.00000000	          0.00000000	          0.00000000	          0.00000000	          0.00000000	          0.00000000	          0.00000000	          0.00000000	          0.00000000	          0.00000000	
0.865	          0.00000000	          0.00000000	          0.00000000	          0.00000000	          0.00000000	          0.00000000	          0.00000000	          0.00000000	          0.00000000	          0.00000000	          0.00000000	          0.00000000	          0.00000000	          0.00000000	          0.00000000	          0.00000000	          0.00000000	          0.00000000	
0.866	          0.00000000	          0.00000000	          0.00000000	          0.00000000	          0.00000000	          0.00000000	          0.00000000	          0.00000000	          0.00000000	          0.00000000	          0.00000000	          0.00000000	          0.00000000	          0.00000000	          0.00000000	          0.00000000	          0.00000000	          0.00000000	
0.867	          0.00000000	          0.00000000	          0.00000000	          0.00000000	          0.00000000	          0.00000000	          0.00000000	          0.00000000	          0.00000000	          0.00000000	          0.00000000	          0.00000000	          0.00000000	          0.00000000	          0.00000000	          0.00000000	          0.00000000	          0.00000000	
0.868	          0.00000000	          0.00000000	          0.00000000	          0.00000000	          0.00000000	          0.00000000	         -4.35097400	         11.44538100	          0.70275700	          1.03331700	          0.00000000	         -0.33403600	          0.00000000	          0.00000000	          0.00000000	         -0.00000000	          1.24792500	         -0.00000000	
0.869	          0.00000000	          0.00000000	          0.00000000	          0.00000000	          0.00000000	          0.00000000	         -5.13278400	         13.10985900	          0.80471300	          1.04110300	          0.00000000	         -0.34011500	          0.00000000	          0.00000000	          0.00000000	         -0.00000000	          1.13283400	         -0.00000000	
0.87	          0.00000000	          0.00000000	          0.00000000	          0.00000000	          0.00000000	          0.00000000	         -6.00719500	         15.02276600	          0.92356600	          1.04842600	          0.00000000	         -0.34557600	          0.00000000	          0.00000000	          0.00000000	         -0.00000000	          1.00786000	         -0.00000000	
0.871	          0.00000000	          0.00000000	          0.00000000	          0.00000000	          0.00000000	          0.00000000	         -6.97881900	         17.21694200	          1.06105400	          1.05525000	          0.00000000	         -0.35046000	          0.00000000	          0.00000000	          0.00000000	         -0.00000000	          0.87305700	         -0.00000000	
0.872	          0.00000000	          0.00000000	          0.00000000	          0.00000000	          0.00000000	          0.00000000	         -8.05156200	         19.72800600	          1.21903900	          1.06155400	          0.00000000	         -0.35481000	          0.00000000	          0.00000000	          0.00000000	         -0.00000000	          0.72851800	         -0.00000000	
0.873	          0.00000000	          0.00000000	          0.00000000	          0.00000000	          0.00000000	          0.00000000	         -9.22842900	         22.59432800	          1.39951400	          1.06733500	          0.00000000	         -0.35867100	          0.00000000	          0.00000000	          0.00000000	         -0.00000000	          0.57437900	         -0.00000000	
0.874	          0.00000000	          0.00000000	          0.00000000	          0.00000000	          0.00000000	          0.00000000	        -10.51130900	         25.85694700	          1.60459700	          1.07260200	          0.00000000	         -0.36208900	          0.00000000	          0.00000000	          0.00000000	         -0.00000000	          0.41082100	         -0.00000000	
0.875	          0.00000000	          0.00000000	          0.00000000	          0.00000000	          0.00000000	          0.00000000	        -11.90075700	         29.55945000	          1.83653200	          1.07737300	          0.00000000	         -0.36510700	          0.00000000	          0.00000000	          0.00000000	         -0.00000000	          0.23806500	         -0.00000000	
0.876	          0.00000000	          0.00000000	          0.00000000	          0.00000000	          0.00000000	          0.00000000	        -13.39577200	         33.74782600	          2.09768000	          1.08167700	          0.00000000	         -0.36776600	          0.00000000	          0.00000000	          0.00000000	         -0.00000000	          0.05637800	         -0.00000000	
0.877	          0.00000000	          0.00000000	          0.00000000	          0.00000000	          0.00000000	          0.00000000	        -14.99358200	         38.47024900	          2.39050800	          1.08554300	          0.00000000	         -0.37010500	          0.00000000	          0.00000000	          0.00000000	          0.00000000	         -0.13393100	          0.00000000	
0.878	          0.00000000	          0.00000000	          0.00000000	          0.00000000	          0.00000000	          0.00000000	        -16.68944200	         43.77685200	          2.71757800	          1.08900500	          0.00000000	         -0.37215800	          0.00000000	          0.00000000	          0.00000000	          0.00000000	         -0.33250800	          0.00000000	
